<svg width="100" height="100" viewBox="0 0 100 100" fill="none" xmlns="http://www.w3.org/2000/svg">
<path d="M14.5835 83.3334V80.0501L18.7502 75.8834V83.3334C18.7502 83.9251 18.5502 84.4195 18.1502 84.8167C17.7502 85.2167 17.2543 85.4167 16.6627 85.4167C16.071 85.4167 15.5766 85.2167 15.1793 84.8167C14.7821 84.4195 14.5835 83.9251 14.5835 83.3334ZM31.2502 83.3334V63.3834L35.4168 59.2167V83.3334C35.4168 83.9251 35.2168 84.4195 34.8168 84.8167C34.4168 85.2167 33.921 85.4167 33.3293 85.4167C32.7377 85.4167 32.2432 85.2167 31.846 84.8167C31.4488 84.4195 31.2502 83.9251 31.2502 83.3334ZM47.9168 83.3334V59.2167L52.0835 63.4876V83.3334C52.0835 83.9251 51.8835 84.4195 51.4835 84.8167C51.0835 85.2167 50.5877 85.4167 49.996 85.4167C49.4043 85.4167 48.9099 85.2167 48.5127 84.8167C48.1154 84.4195 47.9168 83.9251 47.9168 83.3334ZM64.5835 83.3334V63.4876L68.7502 59.3209V83.3334C68.7502 83.9251 68.5502 84.4195 68.1502 84.8167C67.7502 85.2167 67.2543 85.4167 66.6627 85.4167C66.071 85.4167 65.5766 85.2167 65.1793 84.8167C64.7821 84.4195 64.5835 83.9251 64.5835 83.3334ZM81.2502 83.3334V46.7167L85.4168 42.5501V83.3334C85.4168 83.9251 85.2168 84.4195 84.8168 84.8167C84.4168 85.2167 83.921 85.4167 83.3293 85.4167C82.7377 85.4167 82.2432 85.2167 81.846 84.8167C81.4488 84.4195 81.2502 83.9251 81.2502 83.3334ZM15.1918 54.4376L36.9293 32.7001C38.2043 31.4223 39.7821 30.7834 41.6627 30.7834C43.546 30.7834 45.1266 31.4223 46.4043 32.7001L56.4877 42.7876C56.971 43.2681 57.5863 43.5084 58.3335 43.5084C59.0807 43.5084 59.6946 43.2681 60.1752 42.7876L81.8585 21.1042C82.2641 20.6987 82.7599 20.4876 83.346 20.4709C83.9293 20.4515 84.4252 20.6709 84.8335 21.1292C85.2224 21.5348 85.4085 22.0209 85.3918 22.5876C85.3752 23.1515 85.1807 23.6223 84.8085 24.0001L63.071 45.7376C61.796 47.0154 60.2182 47.6542 58.3377 47.6542C56.4543 47.6542 54.8738 47.0154 53.596 45.7376L43.5127 35.6501C43.0293 35.1695 42.4141 34.9292 41.6668 34.9292C40.9196 34.9292 40.3057 35.1695 39.8252 35.6501L18.1418 57.3334C17.7363 57.739 17.2404 57.9515 16.6543 57.9709C16.071 57.9876 15.5752 57.7654 15.1668 57.3042C14.7779 56.9015 14.5918 56.4167 14.6085 55.8501C14.6252 55.2862 14.8196 54.8154 15.1918 54.4376Z" fill="#233E7F"/>
</svg>
